<?xml version="1.0" encoding="UTF-8"?>
<svg id="Layer_2" data-name="Layer 2" xmlns="http://www.w3.org/2000/svg" xmlns:xlink="http://www.w3.org/1999/xlink" viewBox="0 0 500 500">
  <defs>
    <style>
      .cls-1 {
        fill: none;
      }

      .cls-2 {
        fill: url(#New_Pattern_Swatch_18);
      }

      .cls-3 {
        fill: #bca69d;
      }
    </style>
    <pattern id="New_Pattern_Swatch_18" data-name="New Pattern Swatch 18" x="0" y="0" width="32.22" height="55.8" patternUnits="userSpaceOnUse" viewBox="0 0 32.22 55.8">
      <g>
        <rect class="cls-1" y="0" width="32.22" height="55.8"/>
        <path class="cls-3" d="M30.72,60.45l1.5-18.6,1.5,18.6c.07.83-.55,1.55-1.38,1.62-.83.07-1.55-.55-1.62-1.38,0-.08,0-.17,0-.24Z"/>
        <path class="cls-3" d="M-1.5,60.45L0,41.85l1.5,18.6c.07.83-.55,1.55-1.38,1.62-.83.07-1.55-.55-1.62-1.38,0-.08,0-.17,0-.24Z"/>
        <g>
          <path class="cls-3" d="M14.61,32.55l1.5-18.6,1.5,18.6c.07.83-.55,1.55-1.38,1.62-.83.07-1.55-.55-1.62-1.38,0-.08,0-.17,0-.24Z"/>
          <path class="cls-3" d="M16.86,33.85L0,41.85l15.36-10.6c.68-.47,1.62-.3,2.09.38.47.68.3,1.62-.38,2.09-.07.04-.14.09-.21.12Z"/>
          <path class="cls-3" d="M16.86,31.25l15.36,10.6-16.86-8c-.75-.36-1.07-1.25-.71-2,.36-.75,1.25-1.07,2-.71.07.03.15.08.21.12Z"/>
        </g>
        <g>
          <path class="cls-3" d="M30.72,4.65l1.5-18.6,1.5,18.6c.07.83-.55,1.55-1.38,1.62-.83.07-1.55-.55-1.62-1.38,0-.08,0-.17,0-.24Z"/>
          <path class="cls-3" d="M32.97,5.95l-16.86,8L31.47,3.35c.68-.47,1.62-.3,2.09.38.47.68.3,1.62-.38,2.09-.07.05-.14.09-.21.12Z"/>
          <path class="cls-3" d="M32.97,3.35l15.36,10.6L31.47,5.95c-.75-.36-1.07-1.25-.71-2,.36-.75,1.25-1.07,2-.71.07.03.15.08.21.12Z"/>
        </g>
        <g>
          <path class="cls-3" d="M-1.5,4.65L0-13.95,1.5,4.65c.07.83-.55,1.55-1.38,1.62s-1.55-.55-1.62-1.38c0-.08,0-.17,0-.24Z"/>
          <path class="cls-3" d="M.75,5.95l-16.86,8L-.75,3.35c.68-.47,1.62-.3,2.09.38.47.68.3,1.62-.38,2.09-.07.05-.14.09-.21.12Z"/>
          <path class="cls-3" d="M.75,3.35l15.36,10.6L-.75,5.95c-.75-.36-1.07-1.25-.71-2,.36-.75,1.25-1.07,2-.71.07.03.15.08.21.12Z"/>
        </g>
      </g>
    </pattern>
  </defs>
  <g id="Pattern">
    <rect class="cls-2" width="500" height="500"/>
  </g>
</svg>